<mxfile host="app.diagrams.net" agent="Mozilla/5.0 (Windows NT 10.0; Win64; x64; rv:132.0) Gecko/20100101 Firefox/132.0" version="24.8.6">
  <diagram name="Страница — 1" id="cH2lech5biccicMYbITO">
    <mxGraphModel dx="738" dy="644" grid="0" gridSize="10" guides="1" tooltips="1" connect="1" arrows="1" fold="1" page="1" pageScale="1" pageWidth="827" pageHeight="1169" math="0" shadow="0">
      <root>
        <mxCell id="0" />
        <mxCell id="1" parent="0" />
        <mxCell id="OwMaVTb7Oe2Lk7Hu6vVw-1" value="" style="rounded=0;whiteSpace=wrap;html=1;" vertex="1" parent="1">
          <mxGeometry x="120" y="160" width="640" height="360" as="geometry" />
        </mxCell>
        <mxCell id="OwMaVTb7Oe2Lk7Hu6vVw-2" value="" style="rounded=0;whiteSpace=wrap;html=1;" vertex="1" parent="1">
          <mxGeometry x="120" y="160" width="640" height="40" as="geometry" />
        </mxCell>
        <mxCell id="OwMaVTb7Oe2Lk7Hu6vVw-3" value="" style="rounded=0;whiteSpace=wrap;html=1;" vertex="1" parent="1">
          <mxGeometry x="120" y="200" width="120" height="320" as="geometry" />
        </mxCell>
        <mxCell id="OwMaVTb7Oe2Lk7Hu6vVw-4" value="5" style="rounded=0;whiteSpace=wrap;html=1;" vertex="1" parent="1">
          <mxGeometry x="120" y="200" width="120" height="90" as="geometry" />
        </mxCell>
        <mxCell id="OwMaVTb7Oe2Lk7Hu6vVw-5" value="6" style="rounded=0;whiteSpace=wrap;html=1;" vertex="1" parent="1">
          <mxGeometry x="120" y="290" width="120" height="90" as="geometry" />
        </mxCell>
        <mxCell id="OwMaVTb7Oe2Lk7Hu6vVw-6" value="7" style="rounded=0;whiteSpace=wrap;html=1;" vertex="1" parent="1">
          <mxGeometry x="120" y="380" width="120" height="90" as="geometry" />
        </mxCell>
        <mxCell id="OwMaVTb7Oe2Lk7Hu6vVw-7" value="8" style="rounded=0;whiteSpace=wrap;html=1;" vertex="1" parent="1">
          <mxGeometry x="120" y="470" width="120" height="50" as="geometry" />
        </mxCell>
        <mxCell id="OwMaVTb7Oe2Lk7Hu6vVw-8" value="9" style="rounded=0;whiteSpace=wrap;html=1;" vertex="1" parent="1">
          <mxGeometry x="250" y="210" width="500" height="300" as="geometry" />
        </mxCell>
        <mxCell id="OwMaVTb7Oe2Lk7Hu6vVw-9" value="1" style="rounded=0;whiteSpace=wrap;html=1;" vertex="1" parent="1">
          <mxGeometry x="125" y="165" width="110" height="30" as="geometry" />
        </mxCell>
        <mxCell id="OwMaVTb7Oe2Lk7Hu6vVw-10" value="2" style="rounded=0;whiteSpace=wrap;html=1;" vertex="1" parent="1">
          <mxGeometry x="250" y="165" width="110" height="30" as="geometry" />
        </mxCell>
        <mxCell id="OwMaVTb7Oe2Lk7Hu6vVw-11" value="3" style="rounded=0;whiteSpace=wrap;html=1;" vertex="1" parent="1">
          <mxGeometry x="370" y="165" width="110" height="30" as="geometry" />
        </mxCell>
        <mxCell id="OwMaVTb7Oe2Lk7Hu6vVw-12" value="4" style="rounded=0;whiteSpace=wrap;html=1;" vertex="1" parent="1">
          <mxGeometry x="640" y="165" width="110" height="30" as="geometry" />
        </mxCell>
      </root>
    </mxGraphModel>
  </diagram>
</mxfile>
